<svg width="24" height="15" viewBox="0 0 24 15" fill="none" xmlns="http://www.w3.org/2000/svg">
<path id="Vector" d="M9.68856 6.70603C9.68856 6.70603 11.9594 6.53963 11.9594 3.91127C11.9594 1.28273 10.1016 -4.57764e-05 7.74826 -4.57764e-05H0.00447845V14.6886H7.74826C7.74826 14.6886 12.4756 14.836 12.4756 10.3532C12.4756 10.3532 12.6817 6.70603 9.68856 6.70603ZM7.19087 2.6107H7.74826C7.74826 2.6107 8.80087 2.6107 8.80087 4.13899C8.80087 5.6671 8.18182 5.88865 7.47966 5.88865H3.41649V2.6107H7.19087ZM7.52944 12.078H3.41649V8.15261H7.74826C7.74826 8.15261 9.31712 8.1323 9.31712 10.1698C9.31712 11.8879 8.14534 12.065 7.52944 12.078ZM18.7802 3.73719C13.0573 3.73719 13.0624 9.38101 13.0624 9.38101C13.0624 9.38101 12.6697 14.9959 18.7802 14.9959C18.7802 14.9959 23.8722 15.283 23.8722 11.0899H21.2535C21.2535 11.0899 21.3408 12.669 18.8676 12.669C18.8676 12.669 16.2484 12.8422 16.2484 10.1135H23.9596C23.9596 10.1134 24.8033 3.73719 18.7802 3.73719ZM16.2196 8.15261C16.2196 8.15261 16.5394 5.8886 18.8384 5.8886C21.1369 5.8886 21.1082 8.15261 21.1082 8.15261H16.2196ZM21.7182 2.67411H15.5785V0.865305H21.7182V2.67411Z" fill="black"/>
</svg>
