<svg width="17" height="19" viewBox="0 0 17 19" fill="none" xmlns="http://www.w3.org/2000/svg">
<g id="instagram logo" clip-path="url(#clip0_59_71)">
<path id="Vector" d="M8.00581 5.42708C5.73439 5.42708 3.90224 7.24396 3.90224 9.49646C3.90224 11.749 5.73439 13.5658 8.00581 13.5658C10.2772 13.5658 12.1094 11.749 12.1094 9.49646C12.1094 7.24396 10.2772 5.42708 8.00581 5.42708ZM8.00581 12.1421C6.53796 12.1421 5.33796 10.9556 5.33796 9.49646C5.33796 8.03729 6.53439 6.85083 8.00581 6.85083C9.47724 6.85083 10.6737 8.03729 10.6737 9.49646C10.6737 10.9556 9.47367 12.1421 8.00581 12.1421ZM13.2344 5.26063C13.2344 5.78833 12.8058 6.20979 12.2772 6.20979C11.7451 6.20979 11.3201 5.78479 11.3201 5.26063C11.3201 4.73646 11.7487 4.31146 12.2772 4.31146C12.8058 4.31146 13.2344 4.73646 13.2344 5.26063ZM15.9522 6.22396C15.8915 4.9525 15.5987 3.82625 14.6594 2.89833C13.7237 1.97042 12.588 1.68 11.3058 1.61625C9.98439 1.54188 6.02367 1.54188 4.70224 1.61625C3.42367 1.67646 2.28796 1.96688 1.34867 2.89479C0.409387 3.82271 0.120101 4.94896 0.0558151 6.22042C-0.0191849 7.53083 -0.0191849 11.4585 0.0558151 12.769C0.116529 14.0404 0.409387 15.1667 1.34867 16.0946C2.28796 17.0225 3.4201 17.3129 4.70224 17.3767C6.02367 17.451 9.98439 17.451 11.3058 17.3767C12.588 17.3165 13.7237 17.026 14.6594 16.0946C15.5951 15.1667 15.888 14.0404 15.9522 12.769C16.0272 11.4585 16.0272 7.53438 15.9522 6.22396ZM14.2451 14.175C13.9665 14.8692 13.4272 15.404 12.7237 15.6838C11.6701 16.0981 9.1701 16.0025 8.00581 16.0025C6.84153 16.0025 4.33796 16.0946 3.28796 15.6838C2.58796 15.4075 2.04867 14.8727 1.76653 14.175C1.34867 13.1302 1.4451 10.651 1.4451 9.49646C1.4451 8.34188 1.35224 5.85917 1.76653 4.81792C2.0451 4.12375 2.58439 3.58896 3.28796 3.30917C4.34153 2.89479 6.84153 2.99042 8.00581 2.99042C9.1701 2.99042 11.6737 2.89833 12.7237 3.30917C13.4237 3.58542 13.963 4.12021 14.2451 4.81792C14.663 5.86271 14.5665 8.34188 14.5665 9.49646C14.5665 10.651 14.663 13.1337 14.2451 14.175Z" fill="black"/>
</g>
<defs>
<clipPath id="clip0_59_71">
<rect width="16" height="18.1333" fill="white" transform="translate(0.00224304 0.433334)"/>
</clipPath>
</defs>
</svg>
