<svg width="18" height="17" viewBox="0 0 18 17" fill="none" xmlns="http://www.w3.org/2000/svg">
<g id="LinkedIn logo" clip-path="url(#clip0_59_69)">
<path id="Vector" d="M0 1.92672C0 1.3563 0.202708 0.885714 0.608108 0.514959C1.01351 0.144186 1.54055 -0.0411911 2.18919 -0.0411911C2.82626 -0.0411911 3.34169 0.141329 3.73552 0.506402C4.14092 0.882873 4.34363 1.37341 4.34363 1.97806C4.34363 2.52565 4.14672 2.98197 3.7529 3.34704C3.3475 3.72351 2.81467 3.91175 2.15444 3.91175H2.13707C1.49999 3.91175 0.984562 3.72351 0.590734 3.34704C0.196905 2.97057 0 2.49713 0 1.92672ZM0.225869 16.9V5.46897H4.08301V16.9H0.225869ZM6.22008 16.9H10.0772V10.5171C10.0772 10.1178 10.1236 9.80978 10.2162 9.59303C10.3784 9.20515 10.6245 8.87716 10.9546 8.60908C11.2847 8.34098 11.6988 8.20694 12.1969 8.20694C13.4942 8.20694 14.1429 9.06825 14.1429 10.7909V16.9H18V10.346C18 8.65756 17.5946 7.37699 16.7838 6.50426C15.973 5.63154 14.9016 5.19517 13.5695 5.19517C12.0753 5.19517 10.9112 5.82833 10.0772 7.09464V7.12886H10.0598L10.0772 7.09464V5.46897H6.22008C6.24324 5.83403 6.25483 6.96914 6.25483 8.87432C6.25483 10.7795 6.24324 13.4547 6.22008 16.9Z" fill="black"/>
</g>
<defs>
<clipPath id="clip0_59_69">
<rect width="18" height="16.9412" fill="white" transform="translate(0 0.0294113)"/>
</clipPath>
</defs>
</svg>
